
  <svg width="329.25" height="48" viewBox="0 0 1756 256" fill="none" xmlns="http://www.w3.org/2000/svg" xmlns:xlink="http://www.w3.org/1999/xlink" version="1.1">
    
        <g transform="translate(0, 0)">
          <svg xmlns="http://www.w3.org/2000/svg" width="256" height="256" fill="none" viewBox="0 0 256 256"><rect width="256" height="256" fill="#F03C2E" rx="60"/><g clip-path="url(#clip0_7_283)"><path fill="#fff" d="M224.225 119.094L136.906 31.775C135.711 30.5787 134.291 29.6298 132.729 28.9824C131.166 28.3349 129.491 28.0017 127.8 28.0017C126.109 28.0017 124.434 28.3349 122.871 28.9824C121.309 29.6298 119.889 30.5787 118.694 31.775L100.569 49.9L123.569 72.9C128.919 71.025 135.044 72.3062 139.306 76.5687C141.335 78.6014 142.752 81.1638 143.394 83.9632C144.036 86.7626 143.878 89.6862 142.937 92.4L165.106 114.569C170.469 112.719 176.656 113.912 180.937 118.206C182.361 119.63 183.49 121.32 184.26 123.18C185.03 125.04 185.426 127.033 185.426 129.046C185.425 131.059 185.029 133.052 184.258 134.912C183.487 136.771 182.358 138.461 180.934 139.884C179.511 141.308 177.821 142.436 175.961 143.206C174.101 143.977 172.108 144.373 170.095 144.372C168.082 144.372 166.088 143.975 164.229 143.205C162.369 142.434 160.679 141.305 159.256 139.881C154.756 135.381 153.644 128.756 155.919 123.212L135.244 102.537V156.944C136.745 157.686 138.116 158.666 139.306 159.844C140.729 161.267 141.858 162.956 142.629 164.816C143.399 166.675 143.795 168.668 143.795 170.681C143.795 172.694 143.399 174.687 142.629 176.546C141.858 178.406 140.729 180.096 139.306 181.519C137.883 182.942 136.193 184.071 134.334 184.841C132.474 185.611 130.481 186.008 128.469 186.008C126.456 186.008 124.463 185.611 122.604 184.841C120.744 184.071 119.054 182.942 117.631 181.519C116.206 180.096 115.076 178.407 114.305 176.548C113.533 174.688 113.136 172.694 113.136 170.681C113.136 168.668 113.533 166.675 114.305 164.815C115.076 162.955 116.206 161.266 117.631 159.844C119.112 158.369 120.756 157.25 122.65 156.5V101.587C120.825 100.837 119.112 99.7312 117.631 98.2437C115.479 96.0943 114.016 93.3526 113.428 90.3684C112.841 87.3841 113.155 84.2924 114.331 81.4875L91.6437 58.8125L31.7687 118.625C30.5716 119.821 29.6219 121.241 28.9739 122.804C28.3259 124.367 27.9924 126.042 27.9924 127.734C27.9924 129.426 28.3259 131.102 28.9739 132.665C29.6219 134.228 30.5716 135.648 31.7687 136.844L119.094 224.156C120.289 225.352 121.709 226.301 123.271 226.949C124.834 227.596 126.509 227.929 128.2 227.929C129.891 227.929 131.566 227.596 133.129 226.949C134.691 226.301 136.111 225.352 137.306 224.156L224.225 137.375C225.422 136.179 226.372 134.759 227.02 133.196C227.668 131.633 228.001 129.958 228.001 128.266C228.001 126.574 227.668 124.898 227.02 123.335C226.372 121.772 225.422 120.352 224.225 119.156"/></g><defs><clipPath id="clip0_7_283"><rect width="200" height="200" fill="#fff" transform="translate(28 28)"/></clipPath></defs></svg>
        </g>
         
        <g transform="translate(300, 0)">
          <svg width="256" height="256" viewBox="0 0 256 256" fill="none" xmlns="http://www.w3.org/2000/svg">
<rect width="256" height="256" rx="60" fill="#242938"/>
<path d="M128.001 30C72.7791 30 28 74.7708 28 130.001C28 174.184 56.6533 211.668 96.3867 224.891C101.384 225.817 103.219 222.722 103.219 220.081C103.219 217.696 103.126 209.819 103.083 201.463C75.2631 207.512 69.3927 189.664 69.3927 189.664C64.8437 178.105 58.2894 175.032 58.2894 175.032C49.2163 168.825 58.9733 168.953 58.9733 168.953C69.0151 169.658 74.3026 179.258 74.3026 179.258C83.2217 194.546 97.6965 190.126 103.403 187.571C104.301 181.107 106.892 176.696 109.752 174.199C87.5405 171.67 64.1913 163.095 64.1913 124.778C64.1913 113.86 68.0977 104.939 74.4947 97.9362C73.4564 95.4175 70.0335 85.2465 75.4635 71.4722C75.4635 71.4722 83.8609 68.7845 102.971 81.7226C110.948 79.5069 119.502 78.3958 128.001 78.3577C136.499 78.3958 145.061 79.5069 153.052 81.7226C172.139 68.7845 180.525 71.4722 180.525 71.4722C185.968 85.2465 182.544 95.4175 181.505 97.9362C187.917 104.939 191.797 113.86 191.797 124.778C191.797 163.187 168.403 171.644 146.135 174.119C149.722 177.223 152.918 183.308 152.918 192.638C152.918 206.018 152.802 216.787 152.802 220.081C152.802 222.742 154.602 225.86 159.671 224.878C199.383 211.64 228 174.169 228 130.001C228 74.7708 183.227 30 128.001 30ZM65.4536 172.453C65.2333 172.95 64.4517 173.099 63.7396 172.758C63.0143 172.432 62.6069 171.754 62.8421 171.256C63.0574 170.744 63.8406 170.602 64.5643 170.945C65.2913 171.271 65.7053 171.955 65.4536 172.453ZM70.3725 176.842C69.8956 177.285 68.9633 177.079 68.3307 176.38C67.6766 175.683 67.554 174.751 68.0376 174.302C68.5294 173.86 69.4336 174.067 70.0893 174.764C70.7434 175.47 70.8709 176.395 70.3725 176.842ZM73.7471 182.458C73.1344 182.884 72.1325 182.485 71.5132 181.595C70.9004 180.706 70.9004 179.64 71.5264 179.212C72.1474 178.785 73.1344 179.169 73.762 180.052C74.373 180.956 74.373 182.023 73.7471 182.458ZM79.4542 188.962C78.9061 189.566 77.7386 189.404 76.8841 188.579C76.0098 187.773 75.7663 186.629 76.3161 186.024C76.8709 185.418 78.045 185.589 78.9061 186.407C79.7738 187.211 80.0387 188.364 79.4542 188.962ZM86.8301 191.157C86.5883 191.941 85.4639 192.297 84.3312 191.964C83.2002 191.621 82.46 190.704 82.6885 189.912C82.9237 189.124 84.053 188.753 85.194 189.109C86.3234 189.45 87.0652 190.361 86.8301 191.157ZM95.2242 192.089C95.2523 192.913 94.2919 193.597 93.1029 193.612C91.9073 193.639 90.9402 192.971 90.9269 192.16C90.9269 191.327 91.8659 190.65 93.0615 190.63C94.2505 190.607 95.2242 191.269 95.2242 192.089ZM103.47 191.773C103.613 192.577 102.787 193.404 101.606 193.624C100.445 193.836 99.3702 193.339 99.2229 192.541C99.0788 191.716 99.92 190.89 101.079 190.676C102.262 190.471 103.32 190.955 103.47 191.773Z" fill="white"/>
</svg>

        </g>
         
        <g transform="translate(600, 0)">
          <svg xmlns="http://www.w3.org/2000/svg" width="256" height="256" fill="none" viewBox="0 0 256 256"><rect width="256" height="256" fill="#242938" rx="60"/><path fill="url(#paint0_linear_159_730)" d="M94.6743 34.0023H153.856L92.4196 216.032C91.7882 217.902 90.586 219.528 88.9824 220.679C87.3788 221.831 85.4545 222.45 83.4803 222.451H37.4223C35.9265 222.451 34.4522 222.095 33.1213 221.412C31.7904 220.729 30.6411 219.74 29.7687 218.525C28.8962 217.31 28.3256 215.905 28.104 214.425C27.8824 212.946 28.0162 211.435 28.4943 210.018L85.7327 40.4209C86.3639 38.5497 87.5662 36.9236 89.1703 35.7717C90.7744 34.6198 92.6995 34.0001 94.6743 34V34.0023Z"/><path fill="#0078D4" d="M180.674 156.095H86.8261C85.9536 156.094 85.101 156.356 84.3795 156.847C83.6579 157.337 83.1008 158.034 82.7807 158.845C82.4606 159.657 82.3923 160.546 82.5848 161.397C82.7773 162.248 83.2217 163.022 83.86 163.616L144.165 219.903C145.92 221.54 148.232 222.451 150.633 222.451H203.774L180.674 156.095Z"/><path fill="url(#paint1_linear_159_730)" d="M94.6745 34.0023C92.6781 33.9946 90.7315 34.6255 89.1192 35.8028C87.5068 36.98 86.3131 38.642 85.7125 40.5459L28.5649 209.863C28.0546 211.286 27.8944 212.81 28.0979 214.308C28.3013 215.805 28.8624 217.232 29.7337 218.466C30.6051 219.701 31.7609 220.708 33.1036 221.401C34.4463 222.095 35.9362 222.455 37.4474 222.451H84.6942C86.4539 222.136 88.0986 221.36 89.4603 220.202C90.822 219.044 91.8519 217.546 92.4448 215.859L103.841 182.273L144.549 220.241C146.255 221.652 148.395 222.433 150.608 222.451H203.551L180.331 156.096L112.642 156.112L154.07 34.0023H94.6745Z"/><path fill="url(#paint2_linear_159_730)" d="M170.264 40.4118C169.634 38.5435 168.434 36.9201 166.832 35.7702C165.23 34.6204 163.308 34.002 161.336 34.0022H95.3792C97.3508 34.0023 99.2727 34.6208 100.874 35.7707C102.476 36.9205 103.677 38.5437 104.307 40.4118L161.548 210.016C162.026 211.433 162.16 212.944 161.939 214.424C161.718 215.904 161.147 217.309 160.275 218.525C159.402 219.74 158.253 220.73 156.922 221.413C155.591 222.096 154.116 222.453 152.62 222.453H218.579C220.075 222.452 221.55 222.096 222.88 221.413C224.211 220.729 225.36 219.739 226.233 218.524C227.105 217.308 227.675 215.903 227.896 214.423C228.118 212.944 227.984 211.433 227.505 210.016L170.264 40.4118Z"/><defs><linearGradient id="paint0_linear_159_730" x1="116.244" x2="54.783" y1="47.967" y2="229.54" gradientUnits="userSpaceOnUse"><stop stop-color="#114A8B"/><stop offset="1" stop-color="#0669BC"/></linearGradient><linearGradient id="paint1_linear_159_730" x1="135.444" x2="121.227" y1="132.585" y2="137.392" gradientUnits="userSpaceOnUse"><stop stop-opacity=".3"/><stop offset=".071" stop-opacity=".2"/><stop offset=".321" stop-opacity=".1"/><stop offset=".623" stop-opacity=".05"/><stop offset="1" stop-opacity="0"/></linearGradient><linearGradient id="paint2_linear_159_730" x1="127.625" x2="195.091" y1="42.671" y2="222.414" gradientUnits="userSpaceOnUse"><stop stop-color="#3CCBF4"/><stop offset="1" stop-color="#2892DF"/></linearGradient></defs></svg>
        </g>
         
        <g transform="translate(900, 0)">
          <svg xmlns="http://www.w3.org/2000/svg" width="256" height="256" fill="none" viewBox="0 0 256 256"><rect width="256" height="256" fill="#242938" rx="60"/><path fill="#2489CA" d="M33.7158 100.208C33.7158 100.208 28.9814 96.795 34.6627 92.2381L47.8994 80.402C47.8994 80.402 51.6869 76.4172 55.6915 79.8891L177.84 172.368V216.714C177.84 216.714 177.781 223.678 168.844 222.908L33.7158 100.208Z"/><path fill="#1070B3" d="M65.1997 128.792L33.7157 157.415C33.7157 157.415 30.4805 159.822 33.7157 164.123L48.3333 177.418C48.3333 177.418 51.8052 181.147 56.9341 176.905L90.3119 151.596L65.1997 128.792Z"/><path fill="#0877B9" d="M120.474 129.029L178.215 84.9391L177.84 40.83C177.84 40.83 175.374 31.2033 167.148 36.2139L90.312 106.145L120.474 129.029Z"/><path fill="#3C99D4" d="M168.844 222.968C172.198 226.4 176.262 225.276 176.262 225.276L221.259 203.103C227.019 199.177 226.21 194.305 226.21 194.305V61.8982C226.21 56.0788 220.252 54.0667 220.252 54.0667L181.253 35.267C172.731 30 167.148 36.2139 167.148 36.2139C167.148 36.2139 174.328 31.0455 177.84 40.83V215.905C177.84 217.109 177.583 218.292 177.071 219.358C176.045 221.429 173.816 223.362 168.47 222.553L168.844 222.968Z"/></svg>
        </g>
         
        <g transform="translate(1200, 0)">
          <svg width="256" height="256" viewBox="0 0 256 256" fill="none" xmlns="http://www.w3.org/2000/svg">
<rect width="256" height="256" rx="60" fill="#242938"/>
<mask id="mask0_217_156" style="mask-type:alpha" maskUnits="userSpaceOnUse" x="28" y="28" width="200" height="200">
<path d="M64.6656 197.166L31.3344 172.166C30.2952 171.394 29.4519 170.389 28.8727 169.23C28.2935 168.072 27.9946 166.795 28.0001 165.5V90.5001C27.9946 89.2054 28.2935 87.9276 28.8727 86.7698C29.4519 85.6119 30.2952 84.6065 31.3344 83.8345L64.6656 58.8345C63.7702 59.6752 63.0936 60.7218 62.6944 61.8835C62.2952 63.0451 62.1856 64.2866 62.375 65.5001V190.5C62.1856 191.714 62.2952 192.955 62.6944 194.117C63.0936 195.278 63.7702 196.325 64.6656 197.166Z" fill="white"/>
<path d="M224.29 62.7093C222.917 61.8073 221.308 61.3291 219.665 61.3344C218.601 61.3258 217.544 61.5273 216.558 61.9274C215.571 62.3274 214.673 62.9181 213.915 63.6656L213.334 64.25L146.834 128L110.04 163.291L75.9999 195.915L75.4156 196.5C74.6583 197.248 73.7604 197.84 72.7736 198.241C71.7868 198.641 70.7305 198.843 69.6656 198.834C67.8628 198.83 66.1092 198.246 64.6656 197.165L31.3344 172.166C33.0279 173.437 35.1424 174.016 37.2476 173.784C39.3528 173.552 41.2902 172.526 42.6656 170.915L79.6656 127.959L110.04 92.7093L163.25 30.9156C164.022 30.0005 164.985 29.2654 166.072 28.7617C167.159 28.2581 168.343 27.9981 169.541 28C171.184 27.9947 172.792 28.4729 174.165 29.375L224.29 62.7093Z" fill="white"/>
<path d="M224.29 193.29L174.291 226.624C172.589 227.735 170.545 228.195 168.532 227.92C166.52 227.644 164.674 226.651 163.334 225.125L110.04 163.291L79.6656 127.959L42.6656 85.0405C41.278 83.4462 39.3387 82.4358 37.2369 82.2121C35.1352 81.9883 33.0266 82.5679 31.3344 83.8344L64.6656 58.8344C66.1092 57.7545 67.8628 57.1692 69.6656 57.1656C70.7305 57.1566 71.7868 57.3582 72.7736 57.7588C73.7604 58.1595 74.6583 58.7512 75.4156 59.5L75.9999 60.0843L110.04 92.7094L146.834 128L213.334 191.75L213.915 192.334C214.673 193.082 215.571 193.672 216.558 194.072C217.544 194.472 218.601 194.674 219.665 194.665C221.308 194.671 222.917 194.193 224.29 193.29Z" fill="white"/>
<path d="M228 69.6655V186.334C228.001 187.709 227.663 189.064 227.016 190.276C226.369 191.49 225.433 192.525 224.29 193.29L174.291 226.624C175.433 225.859 176.369 224.823 177.017 223.609C177.663 222.395 178 221.041 177.999 219.665V36.3343C177.981 34.9486 177.622 33.5889 176.953 32.3751C176.284 31.1613 175.327 30.1309 174.165 29.375L224.29 62.7093C225.429 63.4774 226.364 64.5131 227.011 65.7258C227.658 66.9385 227.997 68.2911 228 69.6655Z" fill="white"/>
</mask>
<g mask="url(#mask0_217_156)">
<path d="M64.6656 197.165L31.3344 172.166C30.2952 171.394 29.4519 170.387 28.8727 169.23C28.2935 168.072 27.9946 166.794 28.0001 165.5V90.4999C27.9946 89.2052 28.2935 87.9273 28.8727 86.7696C29.4519 85.6117 30.2952 84.6062 31.3344 83.8342L64.6656 58.8342C63.7702 59.675 63.0936 60.7216 62.6944 61.8832C62.2952 63.0449 62.1856 64.2863 62.375 65.4999V190.5C62.1856 191.714 62.2952 192.955 62.6944 194.117C63.0936 195.278 63.7702 196.324 64.6656 197.165Z" fill="#5E438F"/>
<g filter="url(#filter0_dd_217_156)">
<path d="M224.289 62.7093C222.917 61.8073 221.308 61.3291 219.665 61.3344C218.601 61.3258 217.544 61.5273 216.557 61.9274C215.571 62.3274 214.673 62.9181 213.915 63.6656L213.334 64.25L177.914 98.2093L146.834 128L110.04 163.291L75.9993 195.915L75.4151 196.5C74.6577 197.248 73.7598 197.84 72.7731 198.241C71.7862 198.641 70.73 198.843 69.665 198.834C67.8622 198.83 66.1087 198.246 64.665 197.165L31.3338 172.166C33.0272 173.437 35.1418 174.016 37.247 173.784C39.3522 173.552 41.2897 172.526 42.6651 170.915L61.3338 149.25L79.665 127.959L110.04 92.7093L163.249 30.9156C164.022 30.0005 164.985 29.2654 166.072 28.7617C167.158 28.2581 168.343 27.9981 169.539 28C171.183 27.9947 172.791 28.4729 174.165 29.375L224.289 62.7093Z" fill="url(#paint0_linear_217_156)"/>
</g>
<g filter="url(#filter1_dd_217_156)">
<path d="M224.289 193.29L174.29 226.625C172.589 227.736 170.545 228.195 168.532 227.92C166.519 227.644 164.674 226.652 163.334 225.125L110.04 163.291L79.665 127.959L61.3338 106.709L42.6651 85.0407C41.2774 83.4464 39.338 82.436 37.2363 82.2122C35.1347 81.9884 33.026 82.5681 31.3338 83.8344L64.665 58.8345C66.1087 57.7546 67.8622 57.1693 69.665 57.1658C70.73 57.1568 71.7862 57.3584 72.7731 57.759C73.7598 58.1596 74.6577 58.7514 75.4151 59.5002L75.9993 60.0845L110.04 92.7094L146.834 128L177.958 157.835L213.334 191.75L213.915 192.335C214.673 193.082 215.571 193.672 216.557 194.072C217.544 194.472 218.601 194.674 219.665 194.665C221.308 194.671 222.917 194.192 224.289 193.29Z" fill="url(#paint1_linear_217_156)"/>
</g>
<g filter="url(#filter2_dd_217_156)">
<path d="M228 69.6653V186.333C228.001 187.709 227.663 189.063 227.016 190.277C226.369 191.489 225.433 192.525 224.29 193.29L174.29 226.624C175.433 225.859 176.369 224.823 177.015 223.609C177.663 222.395 178 221.041 177.999 219.665V36.3341C177.981 34.9485 177.622 33.5886 176.953 32.3748C176.284 31.161 175.327 30.1307 174.165 29.3748L224.29 62.709C225.429 63.4771 226.363 64.5129 227.011 65.7256C227.657 66.9383 227.997 68.291 228 69.6653Z" fill="url(#paint2_linear_217_156)"/>
</g>
</g>
<defs>
<filter id="filter0_dd_217_156" x="26.1529" y="24.1143" width="203.317" height="181.196" filterUnits="userSpaceOnUse" color-interpolation-filters="sRGB">
<feFlood flood-opacity="0" result="BackgroundImageFix"/>
<feColorMatrix in="SourceAlpha" type="matrix" values="0 0 0 0 0 0 0 0 0 0 0 0 0 0 0 0 0 0 127 0" result="hardAlpha"/>
<feOffset dy="0.246095"/>
<feGaussianBlur stdDeviation="0.246095"/>
<feColorMatrix type="matrix" values="0 0 0 0 0 0 0 0 0 0 0 0 0 0 0 0 0 0 0.24 0"/>
<feBlend mode="normal" in2="BackgroundImageFix" result="effect1_dropShadow_217_156"/>
<feColorMatrix in="SourceAlpha" type="matrix" values="0 0 0 0 0 0 0 0 0 0 0 0 0 0 0 0 0 0 127 0" result="hardAlpha"/>
<feOffset dy="1.29524"/>
<feGaussianBlur stdDeviation="2.59048"/>
<feColorMatrix type="matrix" values="0 0 0 0 0 0 0 0 0 0 0 0 0 0 0 0 0 0 0.22 0"/>
<feBlend mode="normal" in2="effect1_dropShadow_217_156" result="effect2_dropShadow_217_156"/>
<feBlend mode="normal" in="SourceGraphic" in2="effect2_dropShadow_217_156" result="shape"/>
</filter>
<filter id="filter1_dd_217_156" x="26.1529" y="53.2798" width="203.317" height="181.194" filterUnits="userSpaceOnUse" color-interpolation-filters="sRGB">
<feFlood flood-opacity="0" result="BackgroundImageFix"/>
<feColorMatrix in="SourceAlpha" type="matrix" values="0 0 0 0 0 0 0 0 0 0 0 0 0 0 0 0 0 0 127 0" result="hardAlpha"/>
<feOffset dy="0.246095"/>
<feGaussianBlur stdDeviation="0.246095"/>
<feColorMatrix type="matrix" values="0 0 0 0 0 0 0 0 0 0 0 0 0 0 0 0 0 0 0.24 0"/>
<feBlend mode="normal" in2="BackgroundImageFix" result="effect1_dropShadow_217_156"/>
<feColorMatrix in="SourceAlpha" type="matrix" values="0 0 0 0 0 0 0 0 0 0 0 0 0 0 0 0 0 0 127 0" result="hardAlpha"/>
<feOffset dy="1.29524"/>
<feGaussianBlur stdDeviation="2.59048"/>
<feColorMatrix type="matrix" values="0 0 0 0 0 0 0 0 0 0 0 0 0 0 0 0 0 0 0.22 0"/>
<feBlend mode="normal" in2="effect1_dropShadow_217_156" result="effect2_dropShadow_217_156"/>
<feBlend mode="normal" in="SourceGraphic" in2="effect2_dropShadow_217_156" result="shape"/>
</filter>
<filter id="filter2_dd_217_156" x="158.622" y="13.8319" width="84.9208" height="228.335" filterUnits="userSpaceOnUse" color-interpolation-filters="sRGB">
<feFlood flood-opacity="0" result="BackgroundImageFix"/>
<feColorMatrix in="SourceAlpha" type="matrix" values="0 0 0 0 0 0 0 0 0 0 0 0 0 0 0 0 0 0 127 0" result="hardAlpha"/>
<feOffset/>
<feGaussianBlur stdDeviation="0.129524"/>
<feColorMatrix type="matrix" values="0 0 0 0 0 0 0 0 0 0 0 0 0 0 0 0 0 0 0.24 0"/>
<feBlend mode="normal" in2="BackgroundImageFix" result="effect1_dropShadow_217_156"/>
<feColorMatrix in="SourceAlpha" type="matrix" values="0 0 0 0 0 0 0 0 0 0 0 0 0 0 0 0 0 0 127 0" result="hardAlpha"/>
<feOffset/>
<feGaussianBlur stdDeviation="7.77143"/>
<feColorMatrix type="matrix" values="0 0 0 0 0 0 0 0 0 0 0 0 0 0 0 0 0 0 0.3 0"/>
<feBlend mode="normal" in2="effect1_dropShadow_217_156" result="effect2_dropShadow_217_156"/>
<feBlend mode="normal" in="SourceGraphic" in2="effect2_dropShadow_217_156" result="shape"/>
</filter>
<linearGradient id="paint0_linear_217_156" x1="190.499" y1="28" x2="41.9893" y2="177.471" gradientUnits="userSpaceOnUse">
<stop stop-color="#7252AA"/>
<stop offset="1" stop-color="#7252AA"/>
</linearGradient>
<linearGradient id="paint1_linear_217_156" x1="46.7501" y1="64.4571" x2="186.332" y2="220.705" gradientUnits="userSpaceOnUse">
<stop stop-color="#AE7FE2"/>
<stop offset="1" stop-color="#9A70D4"/>
</linearGradient>
<linearGradient id="paint2_linear_217_156" x1="200.49" y1="25.3528" x2="200.49" y2="226.456" gradientUnits="userSpaceOnUse">
<stop stop-color="#D59DFF"/>
<stop offset="1" stop-color="#C18EF1"/>
</linearGradient>
</defs>
</svg>

        </g>
         
        <g transform="translate(1500, 0)">
          <svg xmlns="http://www.w3.org/2000/svg" width="256" height="256" fill="none" viewBox="0 0 256 256"><rect width="256" height="256" fill="#242938" rx="60"/><path fill="url(#paint0_linear_159_762)" d="M78.5714 184L30.2856 145.714L54.2856 101.143L123.143 128L78.5714 184Z"/><path fill="url(#paint1_linear_159_762)" d="M228 81.4285L224.286 197.143L147.429 228L101.143 198.286L168.857 128L139.143 63.1428L165.714 31.1428L228 81.4285Z"/><path fill="url(#paint2_linear_159_762)" d="M228 81.4285L167.143 153.429L139.143 63.1428L165.714 31.1428L228 81.4285Z"/><path fill="url(#paint3_linear_159_762)" d="M124.286 194L44 223.143L56.8571 178L73.7143 122.571L28 107.143L56.8571 28L119.714 35.7143L181.429 106.286L124.286 194Z"/><path fill="#000" d="M190.571 66.5715H67.1428V190H190.571V66.5715Z"/><path fill="#fff" d="M124.857 166.857H78.5713V174.571H124.857V166.857Z"/><path fill="#fff" d="M112 92.0001V82.5715H86.2856V92.0001H93.7142V124.286H86.2856V133.714H112V124.286H104.857V92.0001H112Z"/><path fill="#fff" d="M136.571 134.572C132.571 134.572 129.143 133.714 126.571 132.286C124 130.857 121.714 128.857 120 126.857L127.143 118.857C128.571 120.572 130 121.714 131.429 122.572C132.857 123.429 134.571 124 136.286 124C138.286 124 140 123.429 141.429 122C142.571 120.572 143.143 118.572 143.143 115.429V82.5715H154.571V116C154.571 119.143 154.286 121.714 153.429 124C152.571 126.286 151.429 128 149.714 129.714C148.286 131.143 146.286 132.572 144 133.143C141.714 134 139.429 134.572 136.571 134.572Z"/><defs><linearGradient id="paint0_linear_159_762" x1="30.256" x2="123.192" y1="142.541" y2="142.541" gradientUnits="userSpaceOnUse"><stop offset=".258" stop-color="#F97A12"/><stop offset=".459" stop-color="#B07B58"/><stop offset=".724" stop-color="#577BAE"/><stop offset=".91" stop-color="#1E7CE5"/><stop offset="1" stop-color="#087CFA"/></linearGradient><linearGradient id="paint1_linear_159_762" x1="101.621" x2="254.926" y1="99.086" y2="183.914" gradientUnits="userSpaceOnUse"><stop stop-color="#F97A12"/><stop offset=".072" stop-color="#CB7A3E"/><stop offset=".154" stop-color="#9E7B6A"/><stop offset=".242" stop-color="#757B91"/><stop offset=".334" stop-color="#537BB1"/><stop offset=".432" stop-color="#387CCC"/><stop offset=".538" stop-color="#237CE0"/><stop offset=".655" stop-color="#147CEF"/><stop offset=".792" stop-color="#0B7CF7"/><stop offset="1" stop-color="#087CFA"/></linearGradient><linearGradient id="paint2_linear_159_762" x1="208.651" x2="165.972" y1="150.615" y2="23.088" gradientUnits="userSpaceOnUse"><stop stop-color="#FE315D"/><stop offset=".078" stop-color="#CB417E"/><stop offset=".16" stop-color="#9E4E9B"/><stop offset=".247" stop-color="#755BB4"/><stop offset=".339" stop-color="#5365CA"/><stop offset=".436" stop-color="#386DDB"/><stop offset=".541" stop-color="#2374E9"/><stop offset=".658" stop-color="#1478F3"/><stop offset=".794" stop-color="#0B7BF8"/><stop offset="1" stop-color="#087CFA"/></linearGradient><linearGradient id="paint3_linear_159_762" x1="58.63" x2="186.639" y1="75.066" y2="286.8" gradientUnits="userSpaceOnUse"><stop stop-color="#FE315D"/><stop offset=".04" stop-color="#F63462"/><stop offset=".104" stop-color="#DF3A71"/><stop offset=".167" stop-color="#C24383"/><stop offset=".291" stop-color="#AD4A91"/><stop offset=".55" stop-color="#755BB4"/><stop offset=".917" stop-color="#1D76ED"/><stop offset="1" stop-color="#087CFA"/></linearGradient></defs></svg>
        </g>
        
  </svg>
  